<?xml version="1.0" encoding="utf-8"?>
<!-- Generator: Adobe Illustrator 24.0.0, SVG Export Plug-In . SVG Version: 6.00 Build 0)  -->
<svg version="1.1" id="Layer_1" xmlns="http://www.w3.org/2000/svg" xmlns:xlink="http://www.w3.org/1999/xlink" x="0px" y="0px"
	 viewBox="0 0 25 25" style="enable-background:new 0 0 25 25;" xml:space="preserve">
<style type="text/css">
	.st0{fill:#31B9B9;}
</style>
<path class="st0" d="M22.8,4.5c-0.7-0.6-1.6-0.9-2.5-0.6V2.3c0-0.2-0.1-0.4-0.2-0.6c-0.1-0.1-0.3-0.2-0.6-0.2H2.3
	c-0.4,0-0.8,0.3-0.8,0.8v20.3c0,0.2,0.1,0.4,0.2,0.6c0.1,0.1,0.3,0.2,0.6,0.2h17.2c0.2,0,0.4-0.1,0.6-0.2c0.1-0.1,0.2-0.3,0.2-0.6
	V10.5L22.8,8C23.8,7,23.8,5.5,22.8,4.5L22.8,4.5z M19,9.6l-4.1,4.1l-1.2-1.2l5.1-5.1L20,8.6L19,9.6z M12.5,13.6l1.2,1.2h-1.2V13.6z
	 M18.8,21.9H3.1V3.1h15.6v2l-7.6,7.6c-0.1,0.1-0.2,0.3-0.2,0.6l0,2.3c0,0.2,0.1,0.4,0.2,0.6c0.1,0.2,0.3,0.2,0.5,0.2l2.4,0
	c0.2,0,0.4-0.1,0.6-0.2l4.1-4.1L18.8,21.9z M21.7,6.9l-0.6,0.6l-1.2-1.2l0.6-0.6c0.2-0.2,0.4-0.3,0.6-0.3c0.2,0,0.5,0.1,0.6,0.3
	C21.9,5.8,22,6,22,6.2S21.9,6.7,21.7,6.9L21.7,6.9z M4.7,15.6c0-0.4,0.3-0.8,0.8-0.8h3.9c0.4,0,0.8,0.3,0.8,0.8
	c0,0.4-0.3,0.8-0.8,0.8H5.5C5,16.4,4.7,16.1,4.7,15.6z M4.7,12.5c0-0.4,0.3-0.8,0.8-0.8h3.9c0.4,0,0.8,0.3,0.8,0.8
	c0,0.4-0.3,0.8-0.8,0.8H5.5C5,13.3,4.7,12.9,4.7,12.5z M4.7,9.4c0-0.4,0.3-0.8,0.8-0.8h6.2c0.4,0,0.8,0.3,0.8,0.8s-0.3,0.8-0.8,0.8
	H5.5C5,10.2,4.7,9.8,4.7,9.4z M4.7,6.2c0-0.4,0.3-0.8,0.8-0.8h9.4c0.4,0,0.8,0.3,0.8,0.8c0,0.4-0.3,0.8-0.8,0.8H5.5
	C5,7,4.7,6.7,4.7,6.2z M5.5,18h10.2c0.4,0,0.8,0.3,0.8,0.8c0,0.4-0.3,0.8-0.8,0.8H5.5c-0.4,0-0.8-0.3-0.8-0.8C4.7,18.3,5,18,5.5,18z
	"/>
</svg>
