<svg width="25" height="25" viewBox="0 0 25 25" fill="none" xmlns="http://www.w3.org/2000/svg">
<path d="M22.8202 4.52348C22.1601 3.87405 21.1894 3.65238 20.3125 3.95318V2.3438C20.3125 2.13677 20.2305 1.93755 20.084 1.79108C19.9375 1.64459 19.7383 1.56256 19.5312 1.56256H2.34375C1.9121 1.56256 1.5625 1.91216 1.5625 2.34381V22.6563C1.5625 22.8633 1.64453 23.0626 1.79102 23.209C1.9375 23.3555 2.13671 23.4376 2.34374 23.4376H19.5312C19.7383 23.4376 19.9375 23.3555 20.084 23.209C20.2304 23.0626 20.3125 22.8633 20.3125 22.6563V10.4766L22.8202 7.97656C23.7675 7.02051 23.7675 5.47949 22.8202 4.52356L22.8202 4.52348ZM18.9765 9.60148L14.8437 13.742L13.6015 12.4998L18.75 7.35128L19.9922 8.59348L18.9765 9.60148ZM12.5 13.6092L13.7344 14.8436H12.5V13.6092ZM18.75 21.8747H3.12499V3.12473H18.75V5.14818L11.164 12.7262C11.0214 12.8756 10.9404 13.0738 10.9374 13.2809L10.8906 15.5778C10.8876 15.7848 10.9657 15.984 11.1093 16.1325C11.2519 16.2828 11.4492 16.3698 11.6562 16.3746L14.0624 16.4059C14.2675 16.3951 14.4628 16.3151 14.6171 16.1793L18.7499 12.0388L18.75 21.8747ZM21.711 6.86698L21.0938 7.49198L19.8516 6.24978L20.4766 5.63258C20.6358 5.44898 20.8643 5.34058 21.1065 5.3318C21.3486 5.32303 21.584 5.41579 21.7559 5.58765C21.9278 5.75952 22.0205 5.99488 22.0117 6.23708C22.0029 6.47928 21.8946 6.70778 21.711 6.86695L21.711 6.86698ZM4.68749 15.6247C4.68749 15.1931 5.03709 14.8435 5.46874 14.8435H9.37499C9.80664 14.8435 10.1562 15.1931 10.1562 15.6247C10.1562 16.0564 9.80664 16.406 9.37499 16.406H5.46874C5.03709 16.406 4.68749 16.0564 4.68749 15.6247ZM4.68749 12.4997C4.68749 12.0681 5.03709 11.7185 5.46874 11.7185H9.37499C9.80664 11.7185 10.1562 12.0681 10.1562 12.4997C10.1562 12.9314 9.80664 13.281 9.37499 13.281H5.46874C5.03709 13.281 4.68749 12.9314 4.68749 12.4997ZM4.68749 9.37473C4.68749 8.94308 5.03709 8.59348 5.46874 8.59348H11.7187C12.1504 8.59348 12.5 8.94308 12.5 9.37473C12.5 9.80638 12.1504 10.156 11.7187 10.156H5.46874C5.03709 10.156 4.68749 9.80638 4.68749 9.37473ZM4.68749 6.24973C4.68749 5.81808 5.03709 5.46848 5.46874 5.46848H14.8437C15.2754 5.46848 15.625 5.81808 15.625 6.24973C15.625 6.68138 15.2754 7.03098 14.8437 7.03098H5.46874C5.03709 7.03098 4.68749 6.68138 4.68749 6.24973ZM5.46874 17.9685H15.625C16.0566 17.9685 16.4062 18.3181 16.4062 18.7497C16.4062 19.1814 16.0566 19.531 15.625 19.531H5.46874C5.03709 19.531 4.68749 19.1814 4.68749 18.7497C4.68749 18.3181 5.03709 17.9685 5.46874 17.9685Z" fill="#BE69A4"/>
</svg>
