<?xml version="1.0" encoding="utf-8"?>
<!-- Generator: Adobe Illustrator 24.0.0, SVG Export Plug-In . SVG Version: 6.00 Build 0)  -->
<svg version="1.1" id="Layer_1" xmlns="http://www.w3.org/2000/svg" xmlns:xlink="http://www.w3.org/1999/xlink" x="0px" y="0px"
	 viewBox="0 0 200 115.2" style="enable-background:new 0 0 200 115.2;" xml:space="preserve">
<style type="text/css">
	.st0{fill:#FFFFFF;}
</style>
<title>cloud</title>
<g>
	<title>Layer 1</title>
	<g id="layer1">
	</g>
</g>
<path id="path6438" class="st0" d="M105.4,1.7C87.5,1.8,70,15.2,64.4,34.5c-8.1-4.6-19,0.7-21.6,10.5c-0.4,1.5-0.7,3-0.8,4.6
	C29.4,47,14.4,51.7,7.6,64.7C3,73.2,5.2,84.8,11.7,91.2C22.2,102.5,39.4,103.7,52,97c4.1,12.3,17.3,19.3,28.4,14.7
	c3.5-1.3,6.7-3.8,9.3-6.7c9.5,5.1,21.4,4.2,30-2.7c13.7,15.5,38.7,14.9,51.6-1.6c1.5-1.2,2-4.6,4.2-3.9c10.4,0.8,20.2-9.7,19.4-21.5
	c-0.3-12.2-11.5-21.6-22-19.1c-2.2,1-3-2.6-4.8-3.5c-5-5-11.7-7.7-18-9.1C148.1,22.4,131.7,5,113.2,2.3C110.6,1.8,108,1.6,105.4,1.7
	L105.4,1.7z"/>
</svg>
