<?xml version="1.0" encoding="utf-8"?>
<!-- Generator: Adobe Illustrator 24.0.0, SVG Export Plug-In . SVG Version: 6.00 Build 0)  -->
<svg version="1.1" id="Layer_1" xmlns="http://www.w3.org/2000/svg" xmlns:xlink="http://www.w3.org/1999/xlink" x="0px" y="0px"
	 viewBox="0 0 800 300" style="enable-background:new 0 0 800 300;" xml:space="preserve">
<style type="text/css">
	.st0{fill:#FFFFFF;}
	.st1{fill:#F4A0A0;}
	.st2{fill:#58D6B9;}
	.st3{fill:#CA8A65;}
	.st4{fill:#C6F7FB;}
	.st5{fill:#70595E;}
	.st6{fill:url(#oval10_1_);}
	.st7{fill:#3E9C87;}
	.st8{fill:#4AB19A;}
	.st9{fill:#439F8A;}
	.st10{fill:#F6D546;}
	.st11{fill:#AF946C;}
	.st12{fill:#E0EBE8;}
	.st13{fill:#217D68;}
	.st14{fill:#378C79;}
	.st15{fill:#8FD182;}
	.st16{fill:#6DA0AB;}
	.st17{fill:url(#oval9_1_);}
</style>
<g id="flagLeft">
	<rect id="flagPoleLeft" x="65" y="83" class="st0" width="4" height="144"/>
	<path id="leftGreenFlag2" class="st1" d="M28.5,108.8l41-15.3v32L28.5,108.8z"/>
	<path id="leftGreenFlag" class="st2" d="M28.5,88.8l41-15.3v32L28.5,88.8z"/>
</g>
<g id="flagRight">
	<rect id="flagPoleLeft2" x="725" y="83" class="st0" width="4" height="144"/>
	<path id="leftGreenFlag3" class="st2" d="M688.5,108.8l41-15.3v32L688.5,108.8z"/>
	<path id="leftGreenFlag4" class="st1" d="M688.5,88.8l41-15.3v32L688.5,88.8z"/>
</g>
<g id="brownHouse">
	<rect id="rectangle15" x="411" y="37" class="st3" width="23" height="23"/>
	<rect id="rectangle16" x="414" y="41" class="st4" width="6" height="6"/>
	<rect id="rectangle17" x="426" y="41" class="st4" width="6" height="6"/>
	<rect id="rectangle18" x="414" y="51" class="st4" width="6" height="6"/>
	<rect id="rectangle19" x="426" y="51" class="st5" width="6" height="9"/>
	<path id="polygon2" class="st5" d="M422.5,25.4l15.4,12.4h-30.9L422.5,25.4z"/>
	
		<linearGradient id="oval10_1_" gradientUnits="userSpaceOnUse" x1="429.4983" y1="290.0042" x2="429.4983" y2="269.9958" gradientTransform="matrix(1 0 0 -1 0 300)">
		<stop  offset="0" style="stop-color:#E0EBE8"/>
		<stop  offset="1" style="stop-color:#FFFFFF"/>
	</linearGradient>
	<path id="oval10" class="st6" d="M427,19.3c0.1-5.5,1.3-9.7,2.7-9.3c1.4,0.4,2.4,5.2,2.3,10.7c-0.1,5.5-1.3,9.7-2.7,9.3
		c-1.3-0.4-2.3-4.7-2.3-10"/>
	<rect id="rectangle20" x="426" y="26" class="st5" width="6.5" height="9"/>
</g>
<g id="hills">
	<path id="backHill" class="st7" d="M212,231c0-98.9,84.6-179,189-179s189,80.1,189,179H401H212z"/>
	<path id="leftHill" class="st8" d="M3,368c0-129.8,113.9-235,254.5-235S512,238.2,512,368H257.5H3z"/>
	<path class="st0" d="M797.5,367.8C789.4,251.2,688.6,159,565.5,159s-223.9,92.2-232,208.8H797.5z"/>
</g>
<g id="yellowTree">
	<ellipse id="oval" class="st9" cx="104" cy="215.5" rx="12" ry="5.5"/>
	<path id="bezier" class="st10" d="M89.5,201.5l13.4-56l15.6,56H89.5z"/>
	<rect id="rectangle" x="103" y="178" class="st11" width="2" height="37"/>
	<path id="bezier2" class="st11" d="M103.5,187.3l5.7-5.8l1.3,1.3l-6.4,6.5l-0.4,0.2L103.5,187.3z"/>
	<path id="bezier3" class="st11" d="M103.5,195.3l5.7-5.8l1.3,1.3l-6.4,6.5l-0.4,0.2L103.5,195.3z"/>
	<path id="bezier4" class="st11" d="M104.5,191.3l-5.7-5.8l-1.3,1.3l6.4,6.5l0.4,0.2L104.5,191.3z"/>
</g>
<g id="yellowTree2">
	<ellipse id="oval3" class="st9" cx="178.2" cy="187" rx="10.2" ry="4"/>
	<path id="bezier9" class="st1" d="M163.5,175.3l13.4-50.9l15.6,50.9H163.5z"/>
	<rect id="rectangle3" x="177" y="157" class="st11" width="2" height="30"/>
	<path id="bezier10" class="st11" d="M177.5,162.4l5.7-5.3l1.3,1.2l-6.4,5.9l-0.4,0.2L177.5,162.4z"/>
	<path id="bezier11" class="st11" d="M177.5,169.7l5.7-5.3l1.3,1.2l-6.4,5.9l-0.4,0.2L177.5,169.7z"/>
	<path id="bezier12" class="st11" d="M178.5,166.1l-5.7-5.3l-1.3,1.2l6.4,5.9l0.4,0.2L178.5,166.1z"/>
</g>
<g id="yellowTree3">
	<ellipse id="oval4" class="st12" cx="602.8" cy="195" rx="10.8" ry="4"/>
	<path id="bezier13" class="st1" d="M588.5,183.3l13.4-50.9l15.6,50.9H588.5z"/>
	<rect id="rectangle4" x="602" y="165" class="st11" width="2" height="30"/>
	<path id="bezier14" class="st11" d="M602.5,170.4l5.7-5.3l1.3,1.2l-6.4,5.9l-0.4,0.2L602.5,170.4z"/>
	<path id="bezier15" class="st11" d="M602.5,177.7l5.7-5.3l1.3,1.2l-6.4,5.9l-0.4,0.2L602.5,177.7z"/>
	<path id="bezier16" class="st11" d="M603.5,174.1l-5.7-5.3l-1.3,1.2l6.4,5.9l0.4,0.2L603.5,174.1z"/>
</g>
<g id="yellowTree4">
	<ellipse id="oval5" class="st12" cx="679" cy="211" rx="10" ry="4"/>
	<path id="bezier17" class="st10" d="M664.5,197.5l13.4-56l15.6,56H664.5z"/>
	<rect id="rectangle5" x="678" y="174" class="st11" width="2" height="37"/>
	<path id="bezier18" class="st11" d="M678.5,183.3l5.7-5.8l1.3,1.3l-6.4,6.5l-0.4,0.2L678.5,183.3z"/>
	<path id="bezier19" class="st11" d="M678.5,191.3l5.7-5.8l1.3,1.3l-6.4,6.5l-0.4,0.2L678.5,191.3z"/>
	<path id="bezier20" class="st11" d="M679.5,187.3l-5.7-5.8l-1.3,1.3l6.4,6.5l0.4,0.2L679.5,187.3z"/>
</g>
<g id="darkGreenTree2">
	<ellipse id="oval6" class="st12" cx="645" cy="249" rx="12" ry="4"/>
	<path id="bezier21" class="st13" d="M627.5,238.5l16.4-62l19.1,62H627.5z"/>
	<rect id="rectangle6" x="644" y="216" class="st11" width="2" height="33"/>
	<path id="bezier22" class="st11" d="M644.5,222.8l5.7-5.8l1.3,1.3l-6.4,6.4l-0.4,0.2L644.5,222.8z"/>
	<path id="bezier23" class="st11" d="M644.5,230.6l5.7-5.8l1.3,1.3l-6.4,6.4l-0.4,0.2L644.5,230.6z"/>
	<path id="bezier24" class="st11" d="M645.5,226.7l-5.7-5.8l-1.3,1.3l6.4,6.4l0.4,0.2L645.5,226.7z"/>
</g>
<g id="yellowTree5">
	<ellipse id="oval2" class="st9" cx="143" cy="199.5" rx="12" ry="5.5"/>
	<path id="bezier5" class="st13" d="M127.5,185.5l14.8-69l17.2,69H127.5z"/>
	<rect id="rectangle2" x="142" y="162" class="st11" width="2" height="37"/>
	<path id="bezier6" class="st11" d="M142.5,171.3l5.7-5.8l1.3,1.3l-6.4,6.5l-0.4,0.2L142.5,171.3z"/>
	<path id="bezier7" class="st11" d="M142.5,179.3l5.7-5.8l1.3,1.3l-6.4,6.5l-0.4,0.2L142.5,179.3z"/>
	<path id="bezier8" class="st11" d="M143.5,175.3l-5.7-5.8l-1.3,1.3l6.4,6.5l0.4,0.2L143.5,175.3z"/>
</g>
<g id="yellowTree6">
	<ellipse id="oval7" class="st14" cx="349" cy="90.5" rx="12" ry="5.5"/>
	<path id="bezier25" class="st15" d="M333.5,76.5l14.8-69l17.2,69H333.5z"/>
	<rect id="rectangle7" x="348" y="53" class="st11" width="2" height="37"/>
	<path id="bezier26" class="st11" d="M348.5,62.3l5.7-5.8l1.3,1.3l-6.4,6.5l-0.4,0.2L348.5,62.3z"/>
	<path id="bezier27" class="st11" d="M348.5,70.3l5.7-5.8l1.3,1.3l-6.4,6.5l-0.4,0.2L348.5,70.3z"/>
	<path id="bezier28" class="st11" d="M349.5,66.3l-5.7-5.8l-1.3,1.3l6.4,6.5l0.4,0.2L349.5,66.3z"/>
</g>
<g id="yellowTree7">
	<ellipse id="oval8" class="st14" cx="492.2" cy="104" rx="10.2" ry="4"/>
	<path id="bezier29" class="st13" d="M477.5,92.3l13.4-50.9l15.6,50.9H477.5z"/>
	<rect id="rectangle8" x="491" y="74" class="st11" width="2" height="30"/>
	<path id="bezier30" class="st11" d="M491.5,79.4l5.7-5.3l1.3,1.2l-6.4,5.9l-0.4,0.2L491.5,79.4z"/>
	<path id="bezier31" class="st11" d="M491.5,86.7l5.7-5.3l1.3,1.2l-6.4,5.9l-0.4,0.2L491.5,86.7z"/>
	<path id="bezier32" class="st11" d="M492.5,83.1l-5.7-5.3l-1.3,1.2l6.4,5.9l0.4,0.2L492.5,83.1z"/>
</g>
<g id="blueHouse">
	<rect id="rectangle9" x="204" y="121" class="st16" width="30" height="30"/>
	<rect id="rectangle10" x="208" y="126" class="st4" width="8" height="8"/>
	<rect id="rectangle11" x="223" y="126" class="st4" width="8" height="8"/>
	<rect id="rectangle12" x="208" y="139" class="st4" width="8" height="8"/>
	<rect id="rectangle13" x="223" y="139" class="st5" width="8" height="12"/>
	<path id="polygon" class="st5" d="M219,106l19.9,16.1h-39.8L219,106z"/>
	
		<linearGradient id="oval9_1_" gradientUnits="userSpaceOnUse" x1="227.999" y1="214.0021" x2="227.999" y2="187.9979" gradientTransform="matrix(1 0 0 -1 0 300)">
		<stop  offset="0" style="stop-color:#E0EBE8"/>
		<stop  offset="1" style="stop-color:#FFFFFF"/>
	</linearGradient>
	<path id="oval9" class="st17" d="M225,98.1c0.1-7.2,1.6-12.6,3.2-12.1c1.6,0.5,2.9,6.7,2.8,13.9c-0.1,7.2-1.6,12.6-3.2,12.1
		c-1.6-0.5-2.8-6.1-2.8-13"/>
	<rect id="rectangle14" x="224" y="107" class="st5" width="7.5" height="12"/>
</g>
</svg>
